<svg xmlns="http://www.w3.org/2000/svg" stroke="#000" stroke-width=".5" viewBox="0 0 512 512" width="64" height="64"><path d="M256 0c-82 0-148 66-148 148v67h296v-67C404 66 338 0 256 0z" style="fill:#5a4146"/><path d="m256 0-27 2c69 13 121 73 121 146v67h54v-67C404 66 338 0 256 0z" style="opacity:.1;enable-background:new"/><path d="M130 176c-20 0-37 16-37 36 0 21 17 37 37 37h17v-73h-17zM382 176c20 0 37 16 37 36 0 21-17 37-37 37h-17v-73h17z" style="fill:#e6b273"/><path d="M431 512c-20-48-58-86-107-105H188c-48 19-87 57-107 105h350z" style="fill:#6ab2cc"/><path d="M294 398v-68h-76v68c-11 2-20 5-30 9a70 70 0 0 0 136 0c-10-4-19-7-30-9z" style="fill:#f0c087"/><path d="M218 330v57a159 159 0 0 0 76 0v-57h-76z" style="opacity:.1;enable-background:new"/><path d="M347 117c-13 0-23-10-23-23a23 23 0 0 1-45 0 23 23 0 0 1-46 0 23 23 0 0 1-45 0 23 23 0 0 1-41 14c-11 18-17 39-17 61v64a126 126 0 0 0 252 0v-64c0-22-6-43-17-61-4 5-11 9-18 9z" style="fill:#f0c087"/><path d="M256 293c-15 0-28-2-35-7a8 8 0 0 1 9-14c4 3 13 5 26 5s22-2 26-5a8 8 0 0 1 9 14c-7 5-20 7-35 7zM175 194a8 8 0 0 1-6-14c7-5 18-8 31-8s23 3 30 8a8 8 0 0 1-11 13c-2-3-10-5-19-5s-18 2-20 5l-5 1z" style="fill:#5a4146"/><circle cx="199.6" cy="213.6" r="13.8" style="fill:#353640"/><path d="m337 194-5-1c-2-3-10-5-20-5-9 0-17 2-19 5a8 8 0 0 1-11-13c7-5 18-8 30-8 13 0 24 3 31 8a8 8 0 0 1-6 14z" style="fill:#5a4146"/><circle cx="312.4" cy="213.6" r="13.8" style="fill:#353640"/></svg>